#!OML:ASF X:\für Bonn\!DataBase\2005_08_10_Bjorn_Final\c3d\bjorn.ASF
:FULLY-SPECIFIED
:DEGREES
155
root 0.0893392 19.3023 3.20887 -170.539 -3.20135 178.695
lowerback 5.58729 0.663025 3.55638
upperback 4.83257 0.689595 -1.16345
thorax 1.92166 0.319151 -3.22586
lowerneck -19.8329 -1.21349 3.5361
upperneck 12.3272 -2.234 -2.22161
head 6.93585 -1.10913 -1.55324
rclavicle -5.1684e-015 7.35503e-015
rhumerus 79.3497 -0.653835 -60.0929
rradius 8.72254
rwrist 38.2369
rhand -9.84905 6.81351
rfingers 7.12502
rthumb 16.129 -22.5354
lclavicle -5.1684e-015 7.35503e-015
lhumerus 85.1274 -4.47128 62.6276
lradius 5.67321
lwrist -69.0891
lhand -17.5302 -8.17176
lfingers 7.12502
lthumb 8.72375 21.628
rfemur -23.3552 -13.2995 17.0146
rtibia 32.3895
rfoot -16.0963 14.4411
rtoes -11.5755
lfemur -21.4691 7.0734 -20.6559
ltibia 30.9563
lfoot -19.8054 -11.9269
ltoes -21.8439
156
root 0.0965056 19.3099 3.15942 -170.341 -3.20464 178.778
lowerback 4.67416 0.664143 3.62804
upperback 4.55421 0.716159 -1.22731
thorax 2.1448 0.356635 -3.3243
lowerneck -19.3845 -1.20867 3.64115
upperneck 12.5743 -2.23754 -2.23296
head 6.94126 -1.10323 -1.57204
rclavicle 1.20762e-014 6.55989e-015
rhumerus 79.1024 -0.266236 -60.5333
rradius 8.70121
rwrist 38.267
rhand -9.85381 6.4703
rfingers 7.12502
rthumb 16.1244 -22.8789
lclavicle 1.20762e-014 6.55989e-015
lhumerus 85.0682 -4.66171 62.4247
lradius 5.62373
lwrist -69.8166
lhand -17.4231 -8.19519
lfingers 7.12502
lthumb 8.82711 21.6002
rfemur -23.3421 -14.2588 17.2312
rtibia 32.1102
rfoot -15.731 15.5411
rtoes -11.3873
lfemur -21.4508 7.99711 -20.5925
ltibia 30.7453
lfoot -19.6698 -13.1232
ltoes -21.0458
157
root 0.104053 19.3141 3.11141 -170.164 -3.20375 178.876
lowerback 3.7935 0.672132 3.69238
upperback 4.28616 0.745666 -1.25896
thorax 2.36201 0.392542 -3.38526
lowerneck -18.921 -1.21158 3.67967
upperneck 12.8109 -2.23748 -2.22812
head 6.94136 -1.09826 -1.57424
rclavicle 3.62782e-015 5.1684e-015
rhumerus 78.8734 0.151587 -60.943
rradius 8.67987
rwrist 38.3504
rhand -9.83209 6.14349
rfingers 7.12502
rthumb 16.1453 -23.204
lclavicle 3.62782e-015 5.1684e-015
lhumerus 84.9817 -4.8383 62.2647
lradius 5.60585
lwrist -70.3566
lhand -17.3055 -8.16497
lfingers 7.12502
lthumb 8.9405 21.6256
rfemur -23.3671 -15.3004 17.4701
rtibia 31.9053
rfoot -15.2855 16.7733
rtoes -10.9253
lfemur -21.4619 9.02601 -20.5182
ltibia 30.598
lfoot -19.4589 -14.4493
ltoes -20.2145
158
root 0.111822 19.3155 3.06567 -170.047 -3.19691 178.934
lowerback 2.99459 0.681748 3.73733
upperback 4.02658 0.773067 -1.31927
thorax 2.54374 0.424031 -3.46548
lowerneck -18.3397 -1.20874 3.76326
upperneck 12.9551 -2.23408 -2.25055
head 6.89043 -1.09343 -1.58975
rclavicle -2.50717e-014 0
rhumerus 78.625 0.531785 -61.3779
rradius 8.66141
rwrist 38.4533
rhand -9.79402 5.85699
rfingers 7.12502
rthumb 16.182 -23.4876
lclavicle -2.50717e-014 0
lhumerus 84.8549 -5.03454 62.0785
lradius 5.58201
lwrist -70.4296
lhand -17.3826 -7.99655
lfingers 7.12502
lthumb 8.86611 21.7972
rfemur -23.3787 -16.4911 17.6692
rtibia 31.7593
rfoot -14.7375 18.1549
rtoes -10.2985
lfemur -21.4471 10.107 -20.485
ltibia 30.5019
lfoot -19.1686 -15.8539
ltoes -19.0641
159
root 0.119577 19.315 3.02102 -169.973 -3.18297 179.011
lowerback 2.23965 0.68882 3.78792
upperback 3.7924 0.791514 -1.36193
thorax 2.72739 0.448803 -3.5308
lowerneck -17.7513 -1.20052 3.80226
upperneck 13.0813 -2.22159 -2.22077
head 6.8335 -1.08256 -1.57988
rclavicle 5.56597e-015 -6.65929e-015
rhumerus 78.4795 0.872779 -61.7986
rradius 8.55037
rwrist 38.4922
rhand -9.73761 5.73359
rfingers 7.12502
rthumb 16.2363 -23.6065
lclavicle 5.56597e-015 -6.65929e-015
lhumerus 84.6858 -5.23774 61.9062
lradius 5.53888
lwrist -70.0917
lhand -17.6307 -7.70403
lfingers 7.12502
lthumb 8.62672 22.0997
rfemur -23.4017 -17.8119 17.8939
rtibia 31.658
rfoot -14.0779 19.6811
rtoes -9.52758
lfemur -21.4276 11.2889 -20.4376
ltibia 30.4445
lfoot -18.7514 -17.3435
ltoes -17.7752
160
root 0.127036 19.3131 2.97916 -169.942 -3.1751 179.083
lowerback 1.51585 0.703492 3.8318
upperback 3.61572 0.812362 -1.38894
thorax 2.95407 0.473159 -3.57622
lowerneck -17.2626 -1.19748 3.81121
upperneck 13.2174 -2.2097 -2.21091
head 6.7961 -1.07586 -1.57313
rclavicle 1.82882e-014 9.44227e-016
rhumerus 78.505 1.12804 -62.1755
rradius 8.23816
rwrist 38.9347
rhand -9.85942 5.68375
rfingers 7.12502
rthumb 16.119 -23.6659
lclavicle 1.82882e-014 9.44227e-016
lhumerus 84.5242 -5.4349 61.7664
lradius 5.53596
lwrist -69.4115
lhand -17.9202 -7.39008
lfingers 7.12502
lthumb 8.34735 22.425
rfemur -23.3015 -19.0261 18.0939
rtibia 31.599
rfoot -13.7087 20.9673
rtoes -9.56805
lfemur -21.3857 12.3902 -20.3802
ltibia 30.4119
lfoot -18.2435 -18.7407
ltoes -16.306
161
root 0.13463 19.3114 2.93985 -169.962 -3.14378 179.137
lowerback 0.848656 0.72526 3.86831
upperback 3.46552 0.839707 -1.4378
thorax 3.17803 0.4993 -3.64047
lowerneck -16.7285 -1.19577 3.86432
upperneck 13.2936 -2.20714 -2.21391
head 6.73039 -1.07346 -1.57744
rclavicle -9.62242e-015 -5.46658e-015
rhumerus 78.5938 1.3108 -62.5673
rradius 7.83613
rwrist 39.5256
rhand -10.0289 5.6544
rfingers 7.12502
rthumb 15.9558 -23.7084
lclavicle -9.62242e-015 -5.46658e-015
lhumerus 84.3403 -5.66923 61.6057
lradius 5.55668
lwrist -68.6084
lhand -18.0215 -7.26558
lfingers 7.12502
lthumb 8.24954 22.5534
rfemur -23.1701 -20.1362 18.2418
rtibia 31.5701
rfoot -13.4114 22.1422
rtoes -9.69007
lfemur -21.2253 13.4183 -20.3353
ltibia 30.402
lfoot -18.0098 -19.749
ltoes -15.7102
162
root 0.141704 19.3067 2.90183 -170.061 -3.12158 179.191
lowerback 0.257994 0.742411 3.90965
upperback 3.36841 0.85677 -1.48107
thorax 3.41372 0.519127 -3.70248
lowerneck -16.2465 -1.18951 3.89704
upperneck 13.3494 -2.19717 -2.20464
head 6.66722 -1.06778 -1.57411
rclavicle -2.165e-014 2.56863e-014
rhumerus 78.7414 1.42519 -62.9404
rradius 7.45813
rwrist 40.0448
rhand -9.98318 5.64521
rfingers 7.12502
rthumb 15.9998 -23.7141
lclavicle -2.165e-014 2.56863e-014
lhumerus 84.1695 -5.85895 61.4441
lradius 5.60424
lwrist -67.5608
lhand -17.9708 -7.41859
lfingers 7.12502
lthumb 8.2985 22.3984
rfemur -22.9584 -21.2745 18.3563
rtibia 31.5608
rfoot -13.1175 23.3407
rtoes -9.98104
lfemur -20.994 14.2784 -20.2491
ltibia 30.4026
lfoot -17.6752 -20.6654
ltoes -14.5984
163
root 0.148529 19.3004 2.86687 -170.222 -3.10803 179.243
lowerback -0.287549 0.770098 3.97245
upperback 3.34798 0.8821 -1.52896
thorax 3.70576 0.544003 -3.78147
lowerneck -15.8681 -1.19103 3.89353
upperneck 13.3948 -2.20104 -2.14213
head 6.61873 -1.06593 -1.55018
rclavicle -3.75827e-015 -3.67752e-015
rhumerus 78.901 1.4477 -63.2961
rradius 7.11408
rwrist 40.7403
rhand -9.92467 5.5935
rfingers 7.12502
rthumb 16.0562 -23.7612
lclavicle -3.75827e-015 -3.67752e-015
lhumerus 84.126 -6.01679 61.2844
lradius 5.62348
lwrist -66.3255
lhand -17.8757 -7.58
lfingers 7.12502
lthumb 8.39032 22.2333
rfemur -22.6541 -21.5392 18.3386
rtibia 31.5645
rfoot -13.0322 23.7058
rtoes -9.93329
lfemur -20.7099 15.2054 -20.1574
ltibia 30.4197
lfoot -17.4179 -21.6024
ltoes -13.9921
164
root 0.155145 19.2931 2.83393 -170.45 -3.06603 179.282
lowerback -0.740171 0.808373 4.01503
upperback 3.37092 0.920621 -1.57871
thorax 3.99197 0.573969 -3.85123
lowerneck -15.6121 -1.19067 3.90326
upperneck 13.484 -2.21078 -2.07509
head 6.60469 -1.0656 -1.52954
rclavicle -4.00054e-015 -1.4064e-014
rhumerus 79.0511 1.47876 -63.6557
rradius 6.73447
rwrist 40.7671
rhand -10.0574 5.55359
rfingers 7.12502
rthumb 15.9284 -23.8114
lclavicle -4.00054e-015 -1.4064e-014
lhumerus 84.1544 -6.13061 61.1217
lradius 5.59601
lwrist -65.041
lhand -17.8977 -7.61382
lfingers 7.12502
lthumb 8.36905 22.2004
rfemur -22.2774 -21.781 18.2704
rtibia 31.5773
rfoot -12.9704 24.0662
rtoes -10.0725
lfemur -20.3373 15.3563 -19.9957
ltibia 30.4378
lfoot -17.3448 -21.7642
ltoes -13.4537
165
root 0.160969 19.285 2.80272 -170.714 -3.04656 179.342
lowerback -1.15817 0.841295 4.09296
upperback 3.44008 0.948156 -1.62127
thorax 4.30718 0.599949 -3.93414
lowerneck -15.4733 -1.19027 3.89027
upperneck 13.5854 -2.2207 -1.99624
head 6.61478 -1.06508 -1.5029
rclavicle 1.13059e-015 -8.99501e-015
rhumerus 79.1978 1.49416 -64.0132
rradius 6.41552
rwrist 40.752
rhand -10.1024 5.55503
rfingers 7.12502
rthumb 15.8851 -23.8134
lclavicle 1.13059e-015 -8.99501e-015
lhumerus 84.2018 -6.23518 60.9611
lradius 5.59959
lwrist -63.7902
lhand -17.7181 -7.77795
lfingers 7.12502
lthumb 8.54243 22.0292
rfemur -21.8659 -22.0417 18.2129
rtibia 31.5864
rfoot -12.9112 24.4208
rtoes -10.0544
lfemur -19.9391 15.4887 -19.8035
ltibia 30.4577
lfoot -17.2897 -21.9313
ltoes -12.9472
